<mxfile host="app.diagrams.net" agent="Mozilla/5.0 (Windows NT 10.0; Win64; x64) AppleWebKit/537.36 (KHTML, like Gecko) Chrome/131.0.0.0 Safari/537.36 Edg/131.0.0.0" version="24.9.0">
  <diagram name="第 1 页" id="4kyn_0K84p-ShtkE_yI2">
    <mxGraphModel dx="2688" dy="926" grid="1" gridSize="10" guides="1" tooltips="1" connect="1" arrows="1" fold="1" page="1" pageScale="1" pageWidth="1000" pageHeight="1000" math="0" shadow="0">
      <root>
        <mxCell id="0" />
        <mxCell id="1" parent="0" />
        <mxCell id="l8qkzc66FlltGpMFYKSo-1" value="bos" style="rounded=0;whiteSpace=wrap;html=1;fillColor=#99CCFF;strokeColor=default;fontColor=#333333;fontSize=10;align=center;verticalAlign=middle;fontFamily=Helvetica;" vertex="1" parent="1">
          <mxGeometry x="330" y="85" width="20" height="20" as="geometry" />
        </mxCell>
        <mxCell id="l8qkzc66FlltGpMFYKSo-2" value="" style="rounded=0;whiteSpace=wrap;html=1;fillColor=#f5f5f5;strokeColor=#666666;fontColor=#333333;fontSize=10;" vertex="1" parent="1">
          <mxGeometry x="330" y="115" width="20" height="20" as="geometry" />
        </mxCell>
        <mxCell id="l8qkzc66FlltGpMFYKSo-3" value="" style="rounded=0;whiteSpace=wrap;html=1;fillColor=#f5f5f5;strokeColor=#666666;fontColor=#333333;fontSize=10;" vertex="1" parent="1">
          <mxGeometry x="360" y="115" width="20" height="20" as="geometry" />
        </mxCell>
        <mxCell id="l8qkzc66FlltGpMFYKSo-4" value="" style="rounded=0;whiteSpace=wrap;html=1;fillColor=#f5f5f5;strokeColor=#666666;fontSize=10;align=center;verticalAlign=middle;fontFamily=Helvetica;fontColor=#333333;" vertex="1" parent="1">
          <mxGeometry x="360" y="85" width="20" height="20" as="geometry" />
        </mxCell>
        <mxCell id="l8qkzc66FlltGpMFYKSo-5" value="" style="rounded=0;whiteSpace=wrap;html=1;fillColor=#f5f5f5;strokeColor=#666666;fontSize=10;align=center;verticalAlign=middle;fontFamily=Helvetica;fontColor=#333333;" vertex="1" parent="1">
          <mxGeometry x="390" y="85" width="20" height="20" as="geometry" />
        </mxCell>
        <mxCell id="l8qkzc66FlltGpMFYKSo-6" value="" style="rounded=0;whiteSpace=wrap;html=1;fillColor=#f5f5f5;strokeColor=#666666;fontColor=#333333;fontSize=10;" vertex="1" parent="1">
          <mxGeometry x="390" y="115" width="20" height="20" as="geometry" />
        </mxCell>
        <mxCell id="l8qkzc66FlltGpMFYKSo-7" value="" style="rounded=0;whiteSpace=wrap;html=1;fillColor=#f5f5f5;strokeColor=#666666;fontColor=#333333;fontSize=10;" vertex="1" parent="1">
          <mxGeometry x="420" y="115" width="20" height="20" as="geometry" />
        </mxCell>
        <mxCell id="l8qkzc66FlltGpMFYKSo-8" value="" style="rounded=0;whiteSpace=wrap;html=1;fillColor=#f5f5f5;strokeColor=#666666;fontSize=10;align=center;verticalAlign=middle;fontFamily=Helvetica;fontColor=#333333;" vertex="1" parent="1">
          <mxGeometry x="420" y="85" width="20" height="20" as="geometry" />
        </mxCell>
        <mxCell id="l8qkzc66FlltGpMFYKSo-9" value="" style="rounded=0;whiteSpace=wrap;html=1;fillColor=#f5f5f5;strokeColor=#666666;fontSize=10;align=center;verticalAlign=middle;fontFamily=Helvetica;fontColor=#333333;" vertex="1" parent="1">
          <mxGeometry x="450" y="85" width="20" height="20" as="geometry" />
        </mxCell>
        <mxCell id="l8qkzc66FlltGpMFYKSo-10" value="" style="rounded=0;whiteSpace=wrap;html=1;fillColor=#f5f5f5;strokeColor=#666666;fontColor=#333333;fontSize=10;" vertex="1" parent="1">
          <mxGeometry x="450" y="115" width="20" height="20" as="geometry" />
        </mxCell>
        <mxCell id="l8qkzc66FlltGpMFYKSo-11" value="" style="rounded=0;whiteSpace=wrap;html=1;fillColor=#f5f5f5;strokeColor=#666666;fontColor=#333333;fontSize=10;" vertex="1" parent="1">
          <mxGeometry x="480" y="115" width="20" height="20" as="geometry" />
        </mxCell>
        <mxCell id="l8qkzc66FlltGpMFYKSo-12" value="" style="rounded=0;whiteSpace=wrap;html=1;fillColor=#f5f5f5;strokeColor=#666666;fontSize=10;align=center;verticalAlign=middle;fontFamily=Helvetica;fontColor=#333333;" vertex="1" parent="1">
          <mxGeometry x="480" y="85" width="20" height="20" as="geometry" />
        </mxCell>
        <mxCell id="l8qkzc66FlltGpMFYKSo-13" value="" style="rounded=0;whiteSpace=wrap;html=1;fillColor=#f5f5f5;strokeColor=#666666;fontSize=10;align=center;verticalAlign=middle;fontFamily=Helvetica;fontColor=#333333;" vertex="1" parent="1">
          <mxGeometry x="510" y="85" width="20" height="20" as="geometry" />
        </mxCell>
        <mxCell id="l8qkzc66FlltGpMFYKSo-14" value="" style="rounded=0;whiteSpace=wrap;html=1;fillColor=#f5f5f5;strokeColor=#666666;fontColor=#333333;fontSize=10;" vertex="1" parent="1">
          <mxGeometry x="510" y="115" width="20" height="20" as="geometry" />
        </mxCell>
        <mxCell id="l8qkzc66FlltGpMFYKSo-15" value="" style="rounded=0;whiteSpace=wrap;html=1;fillColor=#f5f5f5;strokeColor=#666666;fontColor=#333333;fontSize=10;" vertex="1" parent="1">
          <mxGeometry x="540" y="115" width="20" height="20" as="geometry" />
        </mxCell>
        <mxCell id="l8qkzc66FlltGpMFYKSo-16" value="eos" style="rounded=0;whiteSpace=wrap;html=1;fillColor=#99CCFF;strokeColor=default;fontColor=#333333;fontSize=10;align=center;verticalAlign=middle;fontFamily=Helvetica;" vertex="1" parent="1">
          <mxGeometry x="540" y="85" width="20" height="20" as="geometry" />
        </mxCell>
        <mxCell id="l8qkzc66FlltGpMFYKSo-17" value="ans" style="rounded=0;whiteSpace=wrap;html=1;fillColor=#99CCFF;strokeColor=default;fontColor=#333333;fontSize=10;align=center;verticalAlign=middle;fontFamily=Helvetica;" vertex="1" parent="1">
          <mxGeometry x="570" y="85" width="20" height="20" as="geometry" />
        </mxCell>
        <mxCell id="l8qkzc66FlltGpMFYKSo-18" value="ans" style="rounded=0;whiteSpace=wrap;html=1;fillColor=#99FF99;strokeColor=default;fontColor=#333333;fontSize=10;" vertex="1" parent="1">
          <mxGeometry x="570" y="115" width="20" height="20" as="geometry" />
        </mxCell>
        <mxCell id="l8qkzc66FlltGpMFYKSo-19" value="" style="rounded=0;whiteSpace=wrap;html=1;fillColor=#009900;strokeColor=default;fontColor=#333333;fontSize=10;strokeWidth=3;" vertex="1" parent="1">
          <mxGeometry x="600" y="115" width="20" height="20" as="geometry" />
        </mxCell>
        <mxCell id="l8qkzc66FlltGpMFYKSo-20" value="" style="rounded=0;whiteSpace=wrap;html=1;fillColor=#f5f5f5;strokeColor=#666666;fontColor=#333333;fontSize=10;strokeWidth=3;" vertex="1" parent="1">
          <mxGeometry x="600" y="85" width="20" height="20" as="geometry" />
        </mxCell>
        <mxCell id="l8qkzc66FlltGpMFYKSo-21" value="" style="rounded=0;whiteSpace=wrap;html=1;fillColor=#0066CC;strokeColor=default;fontColor=#333333;fontSize=10;strokeWidth=3;" vertex="1" parent="1">
          <mxGeometry x="630" y="85" width="20" height="20" as="geometry" />
        </mxCell>
        <mxCell id="l8qkzc66FlltGpMFYKSo-22" value="" style="rounded=0;whiteSpace=wrap;html=1;fillColor=#009900;strokeColor=default;fontColor=#333333;fontSize=10;strokeWidth=3;" vertex="1" parent="1">
          <mxGeometry x="630" y="115" width="20" height="20" as="geometry" />
        </mxCell>
        <mxCell id="l8qkzc66FlltGpMFYKSo-23" value="" style="rounded=0;whiteSpace=wrap;html=1;fillColor=#009900;strokeColor=default;fontColor=#333333;fontSize=10;strokeWidth=3;" vertex="1" parent="1">
          <mxGeometry x="660" y="115" width="20" height="20" as="geometry" />
        </mxCell>
        <mxCell id="l8qkzc66FlltGpMFYKSo-24" value="" style="rounded=0;whiteSpace=wrap;html=1;fillColor=#0066CC;strokeColor=default;fontColor=#333333;fontSize=10;strokeWidth=3;" vertex="1" parent="1">
          <mxGeometry x="660" y="85" width="20" height="20" as="geometry" />
        </mxCell>
        <mxCell id="l8qkzc66FlltGpMFYKSo-25" value="" style="rounded=0;whiteSpace=wrap;html=1;fillColor=#0066CC;strokeColor=default;fontColor=#333333;fontSize=10;strokeWidth=3;" vertex="1" parent="1">
          <mxGeometry x="690" y="85" width="20" height="20" as="geometry" />
        </mxCell>
        <mxCell id="l8qkzc66FlltGpMFYKSo-26" value="" style="rounded=0;whiteSpace=wrap;html=1;fillColor=#f5f5f5;strokeColor=#666666;fontColor=#333333;fontSize=10;align=center;verticalAlign=middle;fontFamily=Helvetica;" vertex="1" parent="1">
          <mxGeometry x="720" y="115" width="20" height="20" as="geometry" />
        </mxCell>
        <mxCell id="l8qkzc66FlltGpMFYKSo-27" value="" style="rounded=0;whiteSpace=wrap;html=1;fillColor=#0066CC;strokeColor=default;fontColor=#333333;fontSize=10;strokeWidth=3;" vertex="1" parent="1">
          <mxGeometry x="720" y="85" width="20" height="20" as="geometry" />
        </mxCell>
        <mxCell id="l8qkzc66FlltGpMFYKSo-28" value="" style="rounded=0;whiteSpace=wrap;html=1;fillColor=#0066CC;strokeColor=default;fontColor=#333333;fontSize=10;strokeWidth=3;" vertex="1" parent="1">
          <mxGeometry x="750" y="85" width="20" height="20" as="geometry" />
        </mxCell>
        <mxCell id="l8qkzc66FlltGpMFYKSo-29" value="" style="rounded=0;whiteSpace=wrap;html=1;fillColor=#f5f5f5;strokeColor=#666666;fontColor=#333333;fontSize=10;align=center;verticalAlign=middle;fontFamily=Helvetica;" vertex="1" parent="1">
          <mxGeometry x="750" y="115" width="20" height="20" as="geometry" />
        </mxCell>
        <mxCell id="l8qkzc66FlltGpMFYKSo-30" value="" style="rounded=0;whiteSpace=wrap;html=1;fillColor=#f5f5f5;strokeColor=#666666;fontColor=#333333;fontSize=10;align=center;verticalAlign=middle;fontFamily=Helvetica;" vertex="1" parent="1">
          <mxGeometry x="780" y="115" width="20" height="20" as="geometry" />
        </mxCell>
        <mxCell id="l8qkzc66FlltGpMFYKSo-31" value="" style="rounded=0;whiteSpace=wrap;html=1;fillColor=#0066CC;strokeColor=default;fontColor=#333333;fontSize=10;strokeWidth=3;" vertex="1" parent="1">
          <mxGeometry x="780" y="85" width="20" height="20" as="geometry" />
        </mxCell>
        <mxCell id="l8qkzc66FlltGpMFYKSo-33" value="" style="rounded=0;whiteSpace=wrap;html=1;fillColor=#f5f5f5;strokeColor=#666666;fontColor=#333333;fontSize=10;align=center;verticalAlign=middle;fontFamily=Helvetica;" vertex="1" parent="1">
          <mxGeometry x="810" y="115" width="20" height="20" as="geometry" />
        </mxCell>
        <mxCell id="l8qkzc66FlltGpMFYKSo-34" value="" style="rounded=0;whiteSpace=wrap;html=1;fillColor=#f5f5f5;strokeColor=#666666;fontColor=#333333;fontSize=10;align=center;verticalAlign=middle;fontFamily=Helvetica;" vertex="1" parent="1">
          <mxGeometry x="840" y="115" width="20" height="20" as="geometry" />
        </mxCell>
        <mxCell id="l8qkzc66FlltGpMFYKSo-35" value="eos" style="rounded=0;whiteSpace=wrap;html=1;fillColor=#99CCFF;strokeColor=default;fontColor=#333333;fontSize=10;align=center;verticalAlign=middle;fontFamily=Helvetica;strokeWidth=3;" vertex="1" parent="1">
          <mxGeometry x="810" y="85" width="20" height="20" as="geometry" />
        </mxCell>
        <mxCell id="l8qkzc66FlltGpMFYKSo-36" value="eos" style="rounded=0;whiteSpace=wrap;html=1;fillColor=#99FF99;strokeColor=default;fontColor=#333333;fontSize=10;strokeWidth=3;" vertex="1" parent="1">
          <mxGeometry x="690" y="115" width="20" height="20" as="geometry" />
        </mxCell>
        <mxCell id="l8qkzc66FlltGpMFYKSo-37" value="eos" style="rounded=0;whiteSpace=wrap;html=1;fillColor=#99FF99;strokeColor=default;fontColor=#333333;fontSize=10;align=center;verticalAlign=middle;fontFamily=Helvetica;" vertex="1" parent="1">
          <mxGeometry x="298.56" y="115" width="20" height="20" as="geometry" />
        </mxCell>
        <mxCell id="l8qkzc66FlltGpMFYKSo-38" value="" style="rounded=0;whiteSpace=wrap;html=1;fillColor=#009900;strokeColor=default;fontColor=#333333;fontSize=10;" vertex="1" parent="1">
          <mxGeometry x="240" y="115" width="20" height="20" as="geometry" />
        </mxCell>
        <mxCell id="l8qkzc66FlltGpMFYKSo-39" value="bos" style="rounded=0;whiteSpace=wrap;html=1;fillColor=#99FF99;strokeColor=default;fontColor=#333333;fontSize=10;align=center;verticalAlign=middle;fontFamily=Helvetica;" vertex="1" parent="1">
          <mxGeometry x="210" y="115" width="20" height="20" as="geometry" />
        </mxCell>
        <mxCell id="l8qkzc66FlltGpMFYKSo-40" value="" style="rounded=0;whiteSpace=wrap;html=1;fillColor=#f5f5f5;strokeColor=#666666;fontColor=#333333;fontSize=10;align=center;verticalAlign=middle;fontFamily=Helvetica;" vertex="1" parent="1">
          <mxGeometry x="210" y="85" width="20" height="20" as="geometry" />
        </mxCell>
        <mxCell id="l8qkzc66FlltGpMFYKSo-41" value="" style="rounded=0;whiteSpace=wrap;html=1;fillColor=#f5f5f5;strokeColor=#666666;fontColor=#333333;fontSize=10;align=center;verticalAlign=middle;fontFamily=Helvetica;" vertex="1" parent="1">
          <mxGeometry x="240" y="85" width="20" height="20" as="geometry" />
        </mxCell>
        <mxCell id="l8qkzc66FlltGpMFYKSo-42" value="" style="rounded=0;whiteSpace=wrap;html=1;fillColor=#f5f5f5;strokeColor=#666666;fontColor=#333333;fontSize=10;align=center;verticalAlign=middle;fontFamily=Helvetica;" vertex="1" parent="1">
          <mxGeometry x="298.56" y="85" width="20" height="20" as="geometry" />
        </mxCell>
        <mxCell id="l8qkzc66FlltGpMFYKSo-43" value="" style="shape=curlyBracket;whiteSpace=wrap;html=1;rounded=1;flipH=1;labelPosition=right;verticalLabelPosition=middle;align=left;verticalAlign=middle;rotation=-90;" vertex="1" parent="1">
          <mxGeometry x="259.1" y="13.29" width="15" height="111.56" as="geometry" />
        </mxCell>
        <mxCell id="l8qkzc66FlltGpMFYKSo-44" value="Prompt" style="text;html=1;align=center;verticalAlign=middle;whiteSpace=wrap;rounded=0;" vertex="1" parent="1">
          <mxGeometry x="236.6" y="46.56999999999999" width="60" height="20" as="geometry" />
        </mxCell>
        <mxCell id="l8qkzc66FlltGpMFYKSo-45" value="" style="shape=curlyBracket;whiteSpace=wrap;html=1;rounded=1;flipH=1;labelPosition=right;verticalLabelPosition=middle;align=left;verticalAlign=middle;rotation=-90;" vertex="1" parent="1">
          <mxGeometry x="436.44" y="-45.94" width="15" height="230" as="geometry" />
        </mxCell>
        <mxCell id="l8qkzc66FlltGpMFYKSo-46" value="Input" style="text;html=1;align=center;verticalAlign=middle;whiteSpace=wrap;rounded=0;" vertex="1" parent="1">
          <mxGeometry x="413.94" y="46.56999999999999" width="60" height="20" as="geometry" />
        </mxCell>
        <mxCell id="l8qkzc66FlltGpMFYKSo-47" value="Audio" style="text;html=1;align=left;verticalAlign=middle;whiteSpace=wrap;rounded=0;" vertex="1" parent="1">
          <mxGeometry x="897.5" y="84.99999999999994" width="40" height="20" as="geometry" />
        </mxCell>
        <mxCell id="l8qkzc66FlltGpMFYKSo-48" value="Text" style="text;html=1;align=left;verticalAlign=middle;whiteSpace=wrap;rounded=0;" vertex="1" parent="1">
          <mxGeometry x="897.5" y="115.00000000000006" width="40" height="20" as="geometry" />
        </mxCell>
        <mxCell id="l8qkzc66FlltGpMFYKSo-49" value="bos" style="rounded=0;whiteSpace=wrap;html=1;fillColor=#99CCFF;strokeColor=default;fontColor=#333333;fontSize=10;align=center;verticalAlign=middle;fontFamily=Helvetica;" vertex="1" parent="1">
          <mxGeometry x="210" y="403.97" width="20" height="20" as="geometry" />
        </mxCell>
        <mxCell id="l8qkzc66FlltGpMFYKSo-50" value="" style="rounded=0;whiteSpace=wrap;html=1;fillColor=#f5f5f5;strokeColor=#666666;fontColor=#333333;fontSize=10;align=center;verticalAlign=middle;fontFamily=Helvetica;" vertex="1" parent="1">
          <mxGeometry x="210" y="433.96999999999997" width="20" height="20" as="geometry" />
        </mxCell>
        <mxCell id="l8qkzc66FlltGpMFYKSo-51" value="" style="rounded=0;whiteSpace=wrap;html=1;fillColor=#f5f5f5;strokeColor=#666666;fontColor=#333333;fontSize=10;align=center;verticalAlign=middle;fontFamily=Helvetica;" vertex="1" parent="1">
          <mxGeometry x="240" y="433.96999999999997" width="20" height="20" as="geometry" />
        </mxCell>
        <mxCell id="l8qkzc66FlltGpMFYKSo-52" value="" style="rounded=0;whiteSpace=wrap;html=1;fillColor=#f5f5f5;strokeColor=#666666;fontSize=10;align=center;verticalAlign=middle;fontFamily=Helvetica;fontColor=#333333;" vertex="1" parent="1">
          <mxGeometry x="240" y="403.97" width="20" height="20" as="geometry" />
        </mxCell>
        <mxCell id="l8qkzc66FlltGpMFYKSo-53" value="" style="rounded=0;whiteSpace=wrap;html=1;fillColor=#f5f5f5;strokeColor=#666666;fontSize=10;align=center;verticalAlign=middle;fontFamily=Helvetica;fontColor=#333333;" vertex="1" parent="1">
          <mxGeometry x="270" y="403.97" width="20" height="20" as="geometry" />
        </mxCell>
        <mxCell id="l8qkzc66FlltGpMFYKSo-54" value="" style="rounded=0;whiteSpace=wrap;html=1;fillColor=#f5f5f5;strokeColor=#666666;fontColor=#333333;fontSize=10;align=center;verticalAlign=middle;fontFamily=Helvetica;" vertex="1" parent="1">
          <mxGeometry x="270" y="433.96999999999997" width="20" height="20" as="geometry" />
        </mxCell>
        <mxCell id="l8qkzc66FlltGpMFYKSo-55" value="" style="rounded=0;whiteSpace=wrap;html=1;fillColor=#f5f5f5;strokeColor=#666666;fontColor=#333333;fontSize=10;align=center;verticalAlign=middle;fontFamily=Helvetica;" vertex="1" parent="1">
          <mxGeometry x="300" y="433.96999999999997" width="20" height="20" as="geometry" />
        </mxCell>
        <mxCell id="l8qkzc66FlltGpMFYKSo-56" value="" style="rounded=0;whiteSpace=wrap;html=1;fillColor=#f5f5f5;strokeColor=#666666;fontSize=10;align=center;verticalAlign=middle;fontFamily=Helvetica;fontColor=#333333;" vertex="1" parent="1">
          <mxGeometry x="300" y="403.97" width="20" height="20" as="geometry" />
        </mxCell>
        <mxCell id="l8qkzc66FlltGpMFYKSo-57" value="" style="rounded=0;whiteSpace=wrap;html=1;fillColor=#f5f5f5;strokeColor=#666666;fontSize=10;align=center;verticalAlign=middle;fontFamily=Helvetica;fontColor=#333333;" vertex="1" parent="1">
          <mxGeometry x="330" y="403.97" width="20" height="20" as="geometry" />
        </mxCell>
        <mxCell id="l8qkzc66FlltGpMFYKSo-58" value="" style="rounded=0;whiteSpace=wrap;html=1;fillColor=#f5f5f5;strokeColor=#666666;fontColor=#333333;fontSize=10;align=center;verticalAlign=middle;fontFamily=Helvetica;" vertex="1" parent="1">
          <mxGeometry x="330" y="433.96999999999997" width="20" height="20" as="geometry" />
        </mxCell>
        <mxCell id="l8qkzc66FlltGpMFYKSo-59" value="" style="rounded=0;whiteSpace=wrap;html=1;fillColor=#f5f5f5;strokeColor=#666666;fontColor=#333333;fontSize=10;align=center;verticalAlign=middle;fontFamily=Helvetica;" vertex="1" parent="1">
          <mxGeometry x="360" y="433.96999999999997" width="20" height="20" as="geometry" />
        </mxCell>
        <mxCell id="l8qkzc66FlltGpMFYKSo-60" value="" style="rounded=0;whiteSpace=wrap;html=1;fillColor=#f5f5f5;strokeColor=#666666;fontSize=10;align=center;verticalAlign=middle;fontFamily=Helvetica;fontColor=#333333;" vertex="1" parent="1">
          <mxGeometry x="360" y="403.97" width="20" height="20" as="geometry" />
        </mxCell>
        <mxCell id="l8qkzc66FlltGpMFYKSo-61" value="" style="rounded=0;whiteSpace=wrap;html=1;fillColor=#f5f5f5;strokeColor=#666666;fontSize=10;align=center;verticalAlign=middle;fontFamily=Helvetica;fontColor=#333333;" vertex="1" parent="1">
          <mxGeometry x="390" y="403.97" width="20" height="20" as="geometry" />
        </mxCell>
        <mxCell id="l8qkzc66FlltGpMFYKSo-62" value="" style="rounded=0;whiteSpace=wrap;html=1;fillColor=#f5f5f5;strokeColor=#666666;fontColor=#333333;fontSize=10;align=center;verticalAlign=middle;fontFamily=Helvetica;" vertex="1" parent="1">
          <mxGeometry x="390" y="433.96999999999997" width="20" height="20" as="geometry" />
        </mxCell>
        <mxCell id="l8qkzc66FlltGpMFYKSo-63" value="" style="rounded=0;whiteSpace=wrap;html=1;fillColor=#f5f5f5;strokeColor=#666666;fontColor=#333333;fontSize=10;align=center;verticalAlign=middle;fontFamily=Helvetica;" vertex="1" parent="1">
          <mxGeometry x="540" y="433.96999999999997" width="20" height="20" as="geometry" />
        </mxCell>
        <mxCell id="l8qkzc66FlltGpMFYKSo-64" value="eos" style="rounded=0;whiteSpace=wrap;html=1;fillColor=#99CCFF;strokeColor=default;fontColor=#333333;fontSize=10;align=center;verticalAlign=middle;fontFamily=Helvetica;" vertex="1" parent="1">
          <mxGeometry x="540" y="403.97" width="20" height="20" as="geometry" />
        </mxCell>
        <mxCell id="l8qkzc66FlltGpMFYKSo-65" value="ans" style="rounded=0;whiteSpace=wrap;html=1;fillColor=#99CCFF;strokeColor=default;fontColor=#333333;fontSize=10;align=center;verticalAlign=middle;fontFamily=Helvetica;" vertex="1" parent="1">
          <mxGeometry x="570" y="403.97" width="20" height="20" as="geometry" />
        </mxCell>
        <mxCell id="l8qkzc66FlltGpMFYKSo-66" value="ans" style="rounded=0;whiteSpace=wrap;html=1;fillColor=#99FF99;strokeColor=default;fontColor=#333333;fontSize=10;" vertex="1" parent="1">
          <mxGeometry x="570" y="433.96999999999997" width="20" height="20" as="geometry" />
        </mxCell>
        <mxCell id="l8qkzc66FlltGpMFYKSo-67" value="" style="rounded=0;whiteSpace=wrap;html=1;fillColor=#009900;strokeColor=default;fontColor=#333333;fontSize=10;strokeWidth=3;" vertex="1" parent="1">
          <mxGeometry x="600" y="433.96999999999997" width="20" height="20" as="geometry" />
        </mxCell>
        <mxCell id="l8qkzc66FlltGpMFYKSo-68" value="" style="rounded=0;whiteSpace=wrap;html=1;fillColor=#f5f5f5;strokeColor=#666666;fontColor=#333333;fontSize=10;strokeWidth=3;" vertex="1" parent="1">
          <mxGeometry x="600" y="403.97" width="20" height="20" as="geometry" />
        </mxCell>
        <mxCell id="l8qkzc66FlltGpMFYKSo-69" value="" style="rounded=0;whiteSpace=wrap;html=1;fillColor=#0066CC;strokeColor=default;fontColor=#333333;fontSize=10;strokeWidth=3;" vertex="1" parent="1">
          <mxGeometry x="630" y="403.97" width="20" height="20" as="geometry" />
        </mxCell>
        <mxCell id="l8qkzc66FlltGpMFYKSo-70" value="" style="rounded=0;whiteSpace=wrap;html=1;fillColor=#009900;strokeColor=default;fontColor=#333333;fontSize=10;strokeWidth=3;" vertex="1" parent="1">
          <mxGeometry x="630" y="433.96999999999997" width="20" height="20" as="geometry" />
        </mxCell>
        <mxCell id="l8qkzc66FlltGpMFYKSo-71" value="" style="rounded=0;whiteSpace=wrap;html=1;fillColor=#009900;strokeColor=default;fontColor=#333333;fontSize=10;strokeWidth=3;" vertex="1" parent="1">
          <mxGeometry x="660" y="433.96999999999997" width="20" height="20" as="geometry" />
        </mxCell>
        <mxCell id="l8qkzc66FlltGpMFYKSo-72" value="" style="rounded=0;whiteSpace=wrap;html=1;fillColor=#0066CC;strokeColor=default;fontColor=#333333;fontSize=10;strokeWidth=3;" vertex="1" parent="1">
          <mxGeometry x="660" y="403.97" width="20" height="20" as="geometry" />
        </mxCell>
        <mxCell id="l8qkzc66FlltGpMFYKSo-73" value="" style="rounded=0;whiteSpace=wrap;html=1;fillColor=#0066CC;strokeColor=default;fontColor=#333333;fontSize=10;strokeWidth=3;" vertex="1" parent="1">
          <mxGeometry x="690" y="403.97" width="20" height="20" as="geometry" />
        </mxCell>
        <mxCell id="l8qkzc66FlltGpMFYKSo-74" value="" style="rounded=0;whiteSpace=wrap;html=1;fillColor=#f5f5f5;strokeColor=#666666;fontColor=#333333;fontSize=10;align=center;verticalAlign=middle;fontFamily=Helvetica;" vertex="1" parent="1">
          <mxGeometry x="720" y="433.96999999999997" width="20" height="20" as="geometry" />
        </mxCell>
        <mxCell id="l8qkzc66FlltGpMFYKSo-75" value="" style="rounded=0;whiteSpace=wrap;html=1;fillColor=#0066CC;strokeColor=default;fontColor=#333333;fontSize=10;strokeWidth=3;" vertex="1" parent="1">
          <mxGeometry x="720" y="403.97" width="20" height="20" as="geometry" />
        </mxCell>
        <mxCell id="l8qkzc66FlltGpMFYKSo-76" value="" style="rounded=0;whiteSpace=wrap;html=1;fillColor=#0066CC;strokeColor=default;fontColor=#333333;fontSize=10;strokeWidth=3;" vertex="1" parent="1">
          <mxGeometry x="750" y="403.97" width="20" height="20" as="geometry" />
        </mxCell>
        <mxCell id="l8qkzc66FlltGpMFYKSo-77" value="" style="rounded=0;whiteSpace=wrap;html=1;fillColor=#f5f5f5;strokeColor=#666666;fontColor=#333333;fontSize=10;align=center;verticalAlign=middle;fontFamily=Helvetica;" vertex="1" parent="1">
          <mxGeometry x="750" y="433.96999999999997" width="20" height="20" as="geometry" />
        </mxCell>
        <mxCell id="l8qkzc66FlltGpMFYKSo-78" value="" style="rounded=0;whiteSpace=wrap;html=1;fillColor=#f5f5f5;strokeColor=#666666;fontColor=#333333;fontSize=10;align=center;verticalAlign=middle;fontFamily=Helvetica;" vertex="1" parent="1">
          <mxGeometry x="780" y="433.96999999999997" width="20" height="20" as="geometry" />
        </mxCell>
        <mxCell id="l8qkzc66FlltGpMFYKSo-79" value="" style="rounded=0;whiteSpace=wrap;html=1;fillColor=#0066CC;strokeColor=default;fontColor=#333333;fontSize=10;strokeWidth=3;" vertex="1" parent="1">
          <mxGeometry x="780" y="403.97" width="20" height="20" as="geometry" />
        </mxCell>
        <mxCell id="l8qkzc66FlltGpMFYKSo-80" value="" style="rounded=0;whiteSpace=wrap;html=1;fillColor=#0066CC;strokeColor=default;fontColor=#333333;fontSize=10;strokeWidth=3;" vertex="1" parent="1">
          <mxGeometry x="840" y="403.97" width="20" height="20" as="geometry" />
        </mxCell>
        <mxCell id="l8qkzc66FlltGpMFYKSo-81" value="" style="rounded=0;whiteSpace=wrap;html=1;fillColor=#f5f5f5;strokeColor=#666666;fontColor=#333333;fontSize=10;align=center;verticalAlign=middle;fontFamily=Helvetica;" vertex="1" parent="1">
          <mxGeometry x="840" y="433.96999999999997" width="20" height="20" as="geometry" />
        </mxCell>
        <mxCell id="l8qkzc66FlltGpMFYKSo-82" value="" style="rounded=0;whiteSpace=wrap;html=1;fillColor=#f5f5f5;strokeColor=#666666;fontColor=#333333;fontSize=10;align=center;verticalAlign=middle;fontFamily=Helvetica;" vertex="1" parent="1">
          <mxGeometry x="870" y="433.96999999999997" width="20" height="20" as="geometry" />
        </mxCell>
        <mxCell id="l8qkzc66FlltGpMFYKSo-83" value="eos" style="rounded=0;whiteSpace=wrap;html=1;fillColor=#99CCFF;strokeColor=default;fontColor=#333333;fontSize=10;align=center;verticalAlign=middle;fontFamily=Helvetica;strokeWidth=3;" vertex="1" parent="1">
          <mxGeometry x="870" y="403.97" width="20" height="20" as="geometry" />
        </mxCell>
        <mxCell id="l8qkzc66FlltGpMFYKSo-84" value="eos" style="rounded=0;whiteSpace=wrap;html=1;fillColor=#99FF99;strokeColor=default;fontColor=#333333;fontSize=10;strokeWidth=3;" vertex="1" parent="1">
          <mxGeometry x="690" y="433.96999999999997" width="20" height="20" as="geometry" />
        </mxCell>
        <mxCell id="l8qkzc66FlltGpMFYKSo-85" value="eos" style="rounded=0;whiteSpace=wrap;html=1;fillColor=#99FF99;strokeColor=default;fontColor=#333333;fontSize=10;align=center;verticalAlign=middle;fontFamily=Helvetica;" vertex="1" parent="1">
          <mxGeometry x="180" y="433.96999999999997" width="20" height="20" as="geometry" />
        </mxCell>
        <mxCell id="l8qkzc66FlltGpMFYKSo-86" value="" style="rounded=0;whiteSpace=wrap;html=1;fillColor=#009900;strokeColor=default;fontColor=#333333;fontSize=10;" vertex="1" parent="1">
          <mxGeometry x="150" y="433.96999999999997" width="20" height="20" as="geometry" />
        </mxCell>
        <mxCell id="l8qkzc66FlltGpMFYKSo-87" value="bos" style="rounded=0;whiteSpace=wrap;html=1;fillColor=#99FF99;strokeColor=default;fontColor=#333333;fontSize=10;align=center;verticalAlign=middle;fontFamily=Helvetica;" vertex="1" parent="1">
          <mxGeometry x="120" y="433.96999999999997" width="20" height="20" as="geometry" />
        </mxCell>
        <mxCell id="l8qkzc66FlltGpMFYKSo-88" value="" style="rounded=0;whiteSpace=wrap;html=1;fillColor=#f5f5f5;strokeColor=#666666;fontColor=#333333;fontSize=10;align=center;verticalAlign=middle;fontFamily=Helvetica;" vertex="1" parent="1">
          <mxGeometry x="120" y="403.97" width="20" height="20" as="geometry" />
        </mxCell>
        <mxCell id="l8qkzc66FlltGpMFYKSo-89" value="" style="rounded=0;whiteSpace=wrap;html=1;fillColor=#f5f5f5;strokeColor=#666666;fontColor=#333333;fontSize=10;align=center;verticalAlign=middle;fontFamily=Helvetica;" vertex="1" parent="1">
          <mxGeometry x="150" y="403.97" width="20" height="20" as="geometry" />
        </mxCell>
        <mxCell id="l8qkzc66FlltGpMFYKSo-90" value="" style="rounded=0;whiteSpace=wrap;html=1;fillColor=#f5f5f5;strokeColor=#666666;fontColor=#333333;fontSize=10;align=center;verticalAlign=middle;fontFamily=Helvetica;" vertex="1" parent="1">
          <mxGeometry x="180" y="403.97" width="20" height="20" as="geometry" />
        </mxCell>
        <mxCell id="l8qkzc66FlltGpMFYKSo-91" value="" style="shape=curlyBracket;whiteSpace=wrap;html=1;rounded=1;flipH=1;labelPosition=right;verticalLabelPosition=middle;align=left;verticalAlign=middle;rotation=-90;" vertex="1" parent="1">
          <mxGeometry x="153.94" y="347.40999999999997" width="15" height="81.25" as="geometry" />
        </mxCell>
        <mxCell id="l8qkzc66FlltGpMFYKSo-92" value="Prompt" style="text;html=1;align=center;verticalAlign=middle;whiteSpace=wrap;rounded=0;" vertex="1" parent="1">
          <mxGeometry x="131.44" y="365.53999999999996" width="60" height="20" as="geometry" />
        </mxCell>
        <mxCell id="l8qkzc66FlltGpMFYKSo-93" value="" style="shape=curlyBracket;whiteSpace=wrap;html=1;rounded=1;flipH=1;labelPosition=right;verticalLabelPosition=middle;align=left;verticalAlign=middle;rotation=-90;" vertex="1" parent="1">
          <mxGeometry x="379.48" y="210" width="15" height="356.08" as="geometry" />
        </mxCell>
        <mxCell id="l8qkzc66FlltGpMFYKSo-94" value="Input" style="text;html=1;align=center;verticalAlign=middle;whiteSpace=wrap;rounded=0;" vertex="1" parent="1">
          <mxGeometry x="356.98" y="365.53999999999996" width="60" height="20" as="geometry" />
        </mxCell>
        <mxCell id="l8qkzc66FlltGpMFYKSo-95" value="Audio" style="text;html=1;align=left;verticalAlign=middle;whiteSpace=wrap;rounded=0;" vertex="1" parent="1">
          <mxGeometry x="897.5" y="405.53999999999996" width="40" height="20" as="geometry" />
        </mxCell>
        <mxCell id="l8qkzc66FlltGpMFYKSo-96" value="Text" style="text;html=1;align=left;verticalAlign=middle;whiteSpace=wrap;rounded=0;" vertex="1" parent="1">
          <mxGeometry x="897.5" y="435.54" width="40" height="20" as="geometry" />
        </mxCell>
        <mxCell id="l8qkzc66FlltGpMFYKSo-97" value="" style="rounded=0;whiteSpace=wrap;html=1;fillColor=#f5f5f5;strokeColor=#666666;fontColor=#333333;fontSize=10;align=center;verticalAlign=middle;fontFamily=Helvetica;" vertex="1" parent="1">
          <mxGeometry x="420" y="433.96999999999997" width="20" height="20" as="geometry" />
        </mxCell>
        <mxCell id="l8qkzc66FlltGpMFYKSo-98" value="" style="rounded=0;whiteSpace=wrap;html=1;fillColor=#f5f5f5;strokeColor=#666666;fontSize=10;align=center;verticalAlign=middle;fontFamily=Helvetica;fontColor=#333333;" vertex="1" parent="1">
          <mxGeometry x="420" y="403.97" width="20" height="20" as="geometry" />
        </mxCell>
        <mxCell id="l8qkzc66FlltGpMFYKSo-99" value="" style="rounded=0;whiteSpace=wrap;html=1;fillColor=#f5f5f5;strokeColor=#666666;fontSize=10;align=center;verticalAlign=middle;fontFamily=Helvetica;fontColor=#333333;" vertex="1" parent="1">
          <mxGeometry x="450" y="403.97" width="20" height="20" as="geometry" />
        </mxCell>
        <mxCell id="l8qkzc66FlltGpMFYKSo-100" value="" style="rounded=0;whiteSpace=wrap;html=1;fillColor=#f5f5f5;strokeColor=#666666;fontColor=#333333;fontSize=10;align=center;verticalAlign=middle;fontFamily=Helvetica;" vertex="1" parent="1">
          <mxGeometry x="450" y="433.96999999999997" width="20" height="20" as="geometry" />
        </mxCell>
        <mxCell id="l8qkzc66FlltGpMFYKSo-101" value="" style="rounded=0;whiteSpace=wrap;html=1;fillColor=#f5f5f5;strokeColor=#666666;fontColor=#333333;fontSize=10;align=center;verticalAlign=middle;fontFamily=Helvetica;" vertex="1" parent="1">
          <mxGeometry x="480" y="433.96999999999997" width="20" height="20" as="geometry" />
        </mxCell>
        <mxCell id="l8qkzc66FlltGpMFYKSo-102" value="" style="rounded=0;whiteSpace=wrap;html=1;fillColor=#f5f5f5;strokeColor=#666666;fontSize=10;align=center;verticalAlign=middle;fontFamily=Helvetica;fontColor=#333333;" vertex="1" parent="1">
          <mxGeometry x="480" y="403.97" width="20" height="20" as="geometry" />
        </mxCell>
        <mxCell id="l8qkzc66FlltGpMFYKSo-103" value="" style="rounded=0;whiteSpace=wrap;html=1;fillColor=#f5f5f5;strokeColor=#666666;fontSize=10;align=center;verticalAlign=middle;fontFamily=Helvetica;fontColor=#333333;" vertex="1" parent="1">
          <mxGeometry x="510" y="403.97" width="20" height="20" as="geometry" />
        </mxCell>
        <mxCell id="l8qkzc66FlltGpMFYKSo-104" value="" style="rounded=0;whiteSpace=wrap;html=1;fillColor=#f5f5f5;strokeColor=#666666;fontColor=#333333;fontSize=10;align=center;verticalAlign=middle;fontFamily=Helvetica;" vertex="1" parent="1">
          <mxGeometry x="510" y="433.96999999999997" width="20" height="20" as="geometry" />
        </mxCell>
        <mxCell id="l8qkzc66FlltGpMFYKSo-106" value="" style="rounded=0;whiteSpace=wrap;html=1;fillColor=#f5f5f5;strokeColor=#666666;fontColor=#333333;fontSize=10;align=center;verticalAlign=middle;fontFamily=Helvetica;" vertex="1" parent="1">
          <mxGeometry x="810" y="433.96999999999997" width="20" height="20" as="geometry" />
        </mxCell>
        <mxCell id="l8qkzc66FlltGpMFYKSo-107" value="" style="rounded=0;whiteSpace=wrap;html=1;fillColor=#0066CC;strokeColor=default;fontColor=#333333;fontSize=10;strokeWidth=3;" vertex="1" parent="1">
          <mxGeometry x="810" y="403.97" width="20" height="20" as="geometry" />
        </mxCell>
        <mxCell id="l8qkzc66FlltGpMFYKSo-109" value="" style="shape=curlyBracket;whiteSpace=wrap;html=1;rounded=1;flipH=1;labelPosition=right;verticalLabelPosition=middle;align=left;verticalAlign=middle;rotation=-90;" vertex="1" parent="1">
          <mxGeometry x="694.45" y="-60.37" width="15" height="258.89" as="geometry" />
        </mxCell>
        <mxCell id="l8qkzc66FlltGpMFYKSo-110" value="Answer" style="text;html=1;align=center;verticalAlign=middle;whiteSpace=wrap;rounded=0;" vertex="1" parent="1">
          <mxGeometry x="671.95" y="46.56999999999999" width="60" height="20" as="geometry" />
        </mxCell>
        <mxCell id="l8qkzc66FlltGpMFYKSo-111" value="" style="rounded=0;whiteSpace=wrap;html=1;fillColor=#009900;strokeColor=default;fontColor=#333333;fontSize=10;" vertex="1" parent="1">
          <mxGeometry x="268.56" y="115" width="20" height="20" as="geometry" />
        </mxCell>
        <mxCell id="l8qkzc66FlltGpMFYKSo-112" value="" style="rounded=0;whiteSpace=wrap;html=1;fillColor=#f5f5f5;strokeColor=#666666;fontColor=#333333;fontSize=10;align=center;verticalAlign=middle;fontFamily=Helvetica;" vertex="1" parent="1">
          <mxGeometry x="268.56" y="85" width="20" height="20" as="geometry" />
        </mxCell>
        <mxCell id="l8qkzc66FlltGpMFYKSo-113" value="" style="endArrow=classic;startArrow=classic;html=1;rounded=0;" edge="1" parent="1">
          <mxGeometry width="50" height="50" relative="1" as="geometry">
            <mxPoint x="210" y="150.01" as="sourcePoint" />
            <mxPoint x="320.9" y="150.01" as="targetPoint" />
          </mxGeometry>
        </mxCell>
        <mxCell id="l8qkzc66FlltGpMFYKSo-115" value="prompt len" style="edgeLabel;html=1;align=center;verticalAlign=middle;resizable=0;points=[];" vertex="1" connectable="0" parent="l8qkzc66FlltGpMFYKSo-113">
          <mxGeometry x="-0.04" y="-1" relative="1" as="geometry">
            <mxPoint as="offset" />
          </mxGeometry>
        </mxCell>
        <mxCell id="l8qkzc66FlltGpMFYKSo-116" value="" style="endArrow=classic;startArrow=classic;html=1;rounded=0;" edge="1" parent="1">
          <mxGeometry width="50" height="50" relative="1" as="geometry">
            <mxPoint x="360.9" y="150.01" as="sourcePoint" />
            <mxPoint x="530.9" y="150" as="targetPoint" />
          </mxGeometry>
        </mxCell>
        <mxCell id="l8qkzc66FlltGpMFYKSo-117" value="input len / audio len" style="edgeLabel;html=1;align=center;verticalAlign=middle;resizable=0;points=[];" vertex="1" connectable="0" parent="l8qkzc66FlltGpMFYKSo-116">
          <mxGeometry x="-0.04" y="-1" relative="1" as="geometry">
            <mxPoint as="offset" />
          </mxGeometry>
        </mxCell>
        <mxCell id="l8qkzc66FlltGpMFYKSo-126" value="" style="shape=curlyBracket;whiteSpace=wrap;html=1;rounded=1;flipH=1;labelPosition=right;verticalLabelPosition=middle;align=left;verticalAlign=middle;rotation=-90;" vertex="1" parent="1">
          <mxGeometry x="726.69" y="226.36" width="15" height="323.36" as="geometry" />
        </mxCell>
        <mxCell id="l8qkzc66FlltGpMFYKSo-127" value="Answer" style="text;html=1;align=center;verticalAlign=middle;whiteSpace=wrap;rounded=0;" vertex="1" parent="1">
          <mxGeometry x="690" y="365.53" width="60" height="20" as="geometry" />
        </mxCell>
        <mxCell id="l8qkzc66FlltGpMFYKSo-130" value="" style="rounded=0;whiteSpace=wrap;html=1;fillColor=#f5f5f5;strokeColor=#666666;fontColor=#333333;fontSize=10;" vertex="1" parent="1">
          <mxGeometry x="120" y="85" width="20" height="20" as="geometry" />
        </mxCell>
        <mxCell id="l8qkzc66FlltGpMFYKSo-131" value="" style="rounded=0;whiteSpace=wrap;html=1;fillColor=#f5f5f5;strokeColor=#666666;fontColor=#333333;fontSize=10;" vertex="1" parent="1">
          <mxGeometry x="150" y="85" width="20" height="20" as="geometry" />
        </mxCell>
        <mxCell id="l8qkzc66FlltGpMFYKSo-132" value="" style="rounded=0;whiteSpace=wrap;html=1;fillColor=#f5f5f5;strokeColor=#666666;fontColor=#333333;fontSize=10;" vertex="1" parent="1">
          <mxGeometry x="180" y="85" width="20" height="20" as="geometry" />
        </mxCell>
        <mxCell id="l8qkzc66FlltGpMFYKSo-133" value="" style="rounded=0;whiteSpace=wrap;html=1;fillColor=#f5f5f5;strokeColor=#666666;fontColor=#333333;fontSize=10;" vertex="1" parent="1">
          <mxGeometry x="180" y="115" width="20" height="20" as="geometry" />
        </mxCell>
        <mxCell id="l8qkzc66FlltGpMFYKSo-134" value="" style="rounded=0;whiteSpace=wrap;html=1;fillColor=#f5f5f5;strokeColor=#666666;fontColor=#333333;fontSize=10;" vertex="1" parent="1">
          <mxGeometry x="150" y="115" width="20" height="20" as="geometry" />
        </mxCell>
        <mxCell id="l8qkzc66FlltGpMFYKSo-135" value="" style="rounded=0;whiteSpace=wrap;html=1;fillColor=#f5f5f5;strokeColor=#666666;fontColor=#333333;fontSize=10;" vertex="1" parent="1">
          <mxGeometry x="120" y="115" width="20" height="20" as="geometry" />
        </mxCell>
        <mxCell id="l8qkzc66FlltGpMFYKSo-136" value="" style="rounded=0;whiteSpace=wrap;html=1;fillColor=#f5f5f5;strokeColor=#666666;fontColor=#333333;fontSize=10;" vertex="1" parent="1">
          <mxGeometry x="870" y="85" width="20" height="20" as="geometry" />
        </mxCell>
        <mxCell id="l8qkzc66FlltGpMFYKSo-137" value="" style="rounded=0;whiteSpace=wrap;html=1;fillColor=#f5f5f5;strokeColor=#666666;fontColor=#333333;fontSize=10;" vertex="1" parent="1">
          <mxGeometry x="870" y="115" width="20" height="20" as="geometry" />
        </mxCell>
        <mxCell id="l8qkzc66FlltGpMFYKSo-145" value="&lt;font style=&quot;font-size: 16px;&quot;&gt;&lt;b&gt;inputs_ids[0]&lt;/b&gt;&lt;/font&gt;" style="text;html=1;align=center;verticalAlign=middle;whiteSpace=wrap;rounded=0;" vertex="1" parent="1">
          <mxGeometry x="-20" y="94.85000000000002" width="116.06" height="30" as="geometry" />
        </mxCell>
        <mxCell id="l8qkzc66FlltGpMFYKSo-146" value="&lt;font style=&quot;font-size: 16px;&quot;&gt;&lt;b&gt;inputs_ids[1]&lt;/b&gt;&lt;/font&gt;" style="text;html=1;align=center;verticalAlign=middle;whiteSpace=wrap;rounded=0;" vertex="1" parent="1">
          <mxGeometry x="-20" y="413.43000000000006" width="116.06" height="30" as="geometry" />
        </mxCell>
        <mxCell id="l8qkzc66FlltGpMFYKSo-147" value="" style="endArrow=classic;startArrow=classic;html=1;rounded=0;" edge="1" parent="1">
          <mxGeometry width="50" height="50" relative="1" as="geometry">
            <mxPoint x="119.1" y="475" as="sourcePoint" />
            <mxPoint x="200" y="475" as="targetPoint" />
          </mxGeometry>
        </mxCell>
        <mxCell id="l8qkzc66FlltGpMFYKSo-148" value="prompt len" style="edgeLabel;html=1;align=center;verticalAlign=middle;resizable=0;points=[];" vertex="1" connectable="0" parent="l8qkzc66FlltGpMFYKSo-147">
          <mxGeometry x="-0.04" y="-1" relative="1" as="geometry">
            <mxPoint as="offset" />
          </mxGeometry>
        </mxCell>
        <mxCell id="l8qkzc66FlltGpMFYKSo-149" value="" style="endArrow=classic;startArrow=classic;html=1;rounded=0;" edge="1" parent="1">
          <mxGeometry width="50" height="50" relative="1" as="geometry">
            <mxPoint x="239.99999999999997" y="475.01" as="sourcePoint" />
            <mxPoint x="530" y="475" as="targetPoint" />
          </mxGeometry>
        </mxCell>
        <mxCell id="l8qkzc66FlltGpMFYKSo-150" value="input len / audio len" style="edgeLabel;html=1;align=center;verticalAlign=middle;resizable=0;points=[];" vertex="1" connectable="0" parent="l8qkzc66FlltGpMFYKSo-149">
          <mxGeometry x="-0.04" y="-1" relative="1" as="geometry">
            <mxPoint as="offset" />
          </mxGeometry>
        </mxCell>
        <mxCell id="l8qkzc66FlltGpMFYKSo-151" value="&lt;font style=&quot;font-size: 16px;&quot;&gt;&lt;b&gt;modality_mask[0]&lt;/b&gt;&lt;/font&gt;" style="text;html=1;align=center;verticalAlign=middle;whiteSpace=wrap;rounded=0;" vertex="1" parent="1">
          <mxGeometry x="-40" y="184.06" width="116.06" height="30" as="geometry" />
        </mxCell>
        <mxCell id="l8qkzc66FlltGpMFYKSo-163" value="" style="rounded=0;whiteSpace=wrap;html=1;fillColor=#f5f5f5;strokeColor=#666666;fontColor=#333333;fontSize=10;" vertex="1" parent="1">
          <mxGeometry x="180" y="189" width="20" height="20" as="geometry" />
        </mxCell>
        <mxCell id="l8qkzc66FlltGpMFYKSo-164" value="" style="rounded=0;whiteSpace=wrap;html=1;fillColor=#f5f5f5;strokeColor=#666666;fontColor=#333333;fontSize=10;" vertex="1" parent="1">
          <mxGeometry x="150" y="189" width="20" height="20" as="geometry" />
        </mxCell>
        <mxCell id="l8qkzc66FlltGpMFYKSo-165" value="" style="rounded=0;whiteSpace=wrap;html=1;fillColor=#f5f5f5;strokeColor=#666666;fontColor=#333333;fontSize=10;" vertex="1" parent="1">
          <mxGeometry x="120" y="189" width="20" height="20" as="geometry" />
        </mxCell>
        <mxCell id="l8qkzc66FlltGpMFYKSo-182" value="&lt;font style=&quot;font-size: 16px;&quot;&gt;&lt;b&gt;attention_mask[0]&lt;/b&gt;&lt;/font&gt;" style="text;html=1;align=center;verticalAlign=middle;whiteSpace=wrap;rounded=0;" vertex="1" parent="1">
          <mxGeometry x="-40" y="214.06" width="116.06" height="30" as="geometry" />
        </mxCell>
        <mxCell id="l8qkzc66FlltGpMFYKSo-209" value="&lt;font style=&quot;font-size: 16px;&quot;&gt;&lt;b&gt;modality_mask[1]&lt;/b&gt;&lt;/font&gt;" style="text;html=1;align=center;verticalAlign=middle;whiteSpace=wrap;rounded=0;" vertex="1" parent="1">
          <mxGeometry x="-41.44" y="495" width="116.06" height="30" as="geometry" />
        </mxCell>
        <mxCell id="l8qkzc66FlltGpMFYKSo-236" value="&lt;font style=&quot;font-size: 16px;&quot;&gt;&lt;b&gt;attention_mask[1]&lt;/b&gt;&lt;/font&gt;" style="text;html=1;align=center;verticalAlign=middle;whiteSpace=wrap;rounded=0;" vertex="1" parent="1">
          <mxGeometry x="-41.44" y="525" width="116.06" height="30" as="geometry" />
        </mxCell>
        <mxCell id="l8qkzc66FlltGpMFYKSo-265" value="" style="rounded=0;whiteSpace=wrap;html=1;fillColor=#f5f5f5;strokeColor=#666666;fontColor=#333333;fontSize=10;" vertex="1" parent="1">
          <mxGeometry x="180" y="219.06" width="20" height="20" as="geometry" />
        </mxCell>
        <mxCell id="l8qkzc66FlltGpMFYKSo-266" value="" style="rounded=0;whiteSpace=wrap;html=1;fillColor=#f5f5f5;strokeColor=#666666;fontColor=#333333;fontSize=10;" vertex="1" parent="1">
          <mxGeometry x="150" y="219.06" width="20" height="20" as="geometry" />
        </mxCell>
        <mxCell id="l8qkzc66FlltGpMFYKSo-267" value="" style="rounded=0;whiteSpace=wrap;html=1;fillColor=#f5f5f5;strokeColor=#666666;fontColor=#333333;fontSize=10;" vertex="1" parent="1">
          <mxGeometry x="120" y="219.06" width="20" height="20" as="geometry" />
        </mxCell>
        <mxCell id="l8qkzc66FlltGpMFYKSo-268" value="" style="rounded=0;whiteSpace=wrap;html=1;fillColor=#f5f5f5;strokeColor=#666666;fontColor=#333333;fontSize=10;" vertex="1" parent="1">
          <mxGeometry x="270" y="189" width="20" height="20" as="geometry" />
        </mxCell>
        <mxCell id="l8qkzc66FlltGpMFYKSo-269" value="" style="rounded=0;whiteSpace=wrap;html=1;fillColor=#f5f5f5;strokeColor=#666666;fontColor=#333333;fontSize=10;" vertex="1" parent="1">
          <mxGeometry x="240" y="189" width="20" height="20" as="geometry" />
        </mxCell>
        <mxCell id="l8qkzc66FlltGpMFYKSo-270" value="" style="rounded=0;whiteSpace=wrap;html=1;fillColor=#f5f5f5;strokeColor=#666666;fontColor=#333333;fontSize=10;" vertex="1" parent="1">
          <mxGeometry x="210" y="189" width="20" height="20" as="geometry" />
        </mxCell>
        <mxCell id="l8qkzc66FlltGpMFYKSo-271" value="" style="rounded=0;whiteSpace=wrap;html=1;fillColor=#999999;strokeColor=default;fontColor=#333333;fontSize=10;align=center;verticalAlign=middle;fontFamily=Helvetica;" vertex="1" parent="1">
          <mxGeometry x="270" y="219.06" width="20" height="20" as="geometry" />
        </mxCell>
        <mxCell id="l8qkzc66FlltGpMFYKSo-272" value="" style="rounded=0;whiteSpace=wrap;html=1;fillColor=#999999;strokeColor=default;fontColor=#333333;fontSize=10;align=center;verticalAlign=middle;fontFamily=Helvetica;" vertex="1" parent="1">
          <mxGeometry x="240" y="219.06" width="20" height="20" as="geometry" />
        </mxCell>
        <mxCell id="l8qkzc66FlltGpMFYKSo-273" value="" style="rounded=0;whiteSpace=wrap;html=1;fillColor=#999999;strokeColor=default;fontColor=#333333;fontSize=10;align=center;verticalAlign=middle;fontFamily=Helvetica;" vertex="1" parent="1">
          <mxGeometry x="210" y="219.06" width="20" height="20" as="geometry" />
        </mxCell>
        <mxCell id="l8qkzc66FlltGpMFYKSo-274" value="" style="rounded=0;whiteSpace=wrap;html=1;fontSize=10;fillColor=#999999;fontColor=#333333;strokeColor=default;align=center;verticalAlign=middle;fontFamily=Helvetica;" vertex="1" parent="1">
          <mxGeometry x="360" y="189" width="20" height="20" as="geometry" />
        </mxCell>
        <mxCell id="l8qkzc66FlltGpMFYKSo-275" value="" style="rounded=0;whiteSpace=wrap;html=1;fillColor=#f5f5f5;strokeColor=#666666;fontColor=#333333;fontSize=10;" vertex="1" parent="1">
          <mxGeometry x="330" y="189" width="20" height="20" as="geometry" />
        </mxCell>
        <mxCell id="l8qkzc66FlltGpMFYKSo-276" value="" style="rounded=0;whiteSpace=wrap;html=1;fillColor=#f5f5f5;strokeColor=#666666;fontColor=#333333;fontSize=10;" vertex="1" parent="1">
          <mxGeometry x="300" y="189" width="20" height="20" as="geometry" />
        </mxCell>
        <mxCell id="l8qkzc66FlltGpMFYKSo-277" value="" style="rounded=0;whiteSpace=wrap;html=1;fillColor=#999999;strokeColor=default;fontColor=#333333;fontSize=10;align=center;verticalAlign=middle;fontFamily=Helvetica;" vertex="1" parent="1">
          <mxGeometry x="360" y="219.06" width="20" height="20" as="geometry" />
        </mxCell>
        <mxCell id="l8qkzc66FlltGpMFYKSo-278" value="" style="rounded=0;whiteSpace=wrap;html=1;fillColor=#999999;strokeColor=default;fontColor=#333333;fontSize=10;align=center;verticalAlign=middle;fontFamily=Helvetica;" vertex="1" parent="1">
          <mxGeometry x="330" y="219.06" width="20" height="20" as="geometry" />
        </mxCell>
        <mxCell id="l8qkzc66FlltGpMFYKSo-279" value="" style="rounded=0;whiteSpace=wrap;html=1;fillColor=#999999;strokeColor=default;fontColor=#333333;fontSize=10;align=center;verticalAlign=middle;fontFamily=Helvetica;" vertex="1" parent="1">
          <mxGeometry x="300" y="219.06" width="20" height="20" as="geometry" />
        </mxCell>
        <mxCell id="l8qkzc66FlltGpMFYKSo-280" value="" style="rounded=0;whiteSpace=wrap;html=1;fontSize=10;fillColor=#999999;fontColor=#333333;strokeColor=default;align=center;verticalAlign=middle;fontFamily=Helvetica;" vertex="1" parent="1">
          <mxGeometry x="450" y="189" width="20" height="20" as="geometry" />
        </mxCell>
        <mxCell id="l8qkzc66FlltGpMFYKSo-281" value="" style="rounded=0;whiteSpace=wrap;html=1;fontSize=10;fillColor=#999999;fontColor=#333333;strokeColor=default;align=center;verticalAlign=middle;fontFamily=Helvetica;" vertex="1" parent="1">
          <mxGeometry x="420" y="189" width="20" height="20" as="geometry" />
        </mxCell>
        <mxCell id="l8qkzc66FlltGpMFYKSo-282" value="" style="rounded=0;whiteSpace=wrap;html=1;fontSize=10;fillColor=#999999;fontColor=#333333;strokeColor=default;align=center;verticalAlign=middle;fontFamily=Helvetica;" vertex="1" parent="1">
          <mxGeometry x="390" y="189" width="20" height="20" as="geometry" />
        </mxCell>
        <mxCell id="l8qkzc66FlltGpMFYKSo-283" value="" style="rounded=0;whiteSpace=wrap;html=1;fillColor=#999999;strokeColor=default;fontColor=#333333;fontSize=10;align=center;verticalAlign=middle;fontFamily=Helvetica;" vertex="1" parent="1">
          <mxGeometry x="450" y="219.06" width="20" height="20" as="geometry" />
        </mxCell>
        <mxCell id="l8qkzc66FlltGpMFYKSo-284" value="" style="rounded=0;whiteSpace=wrap;html=1;fillColor=#999999;strokeColor=default;fontColor=#333333;fontSize=10;align=center;verticalAlign=middle;fontFamily=Helvetica;" vertex="1" parent="1">
          <mxGeometry x="420" y="219.06" width="20" height="20" as="geometry" />
        </mxCell>
        <mxCell id="l8qkzc66FlltGpMFYKSo-285" value="" style="rounded=0;whiteSpace=wrap;html=1;fillColor=#999999;strokeColor=default;fontColor=#333333;fontSize=10;align=center;verticalAlign=middle;fontFamily=Helvetica;" vertex="1" parent="1">
          <mxGeometry x="390" y="219.06" width="20" height="20" as="geometry" />
        </mxCell>
        <mxCell id="l8qkzc66FlltGpMFYKSo-286" value="" style="rounded=0;whiteSpace=wrap;html=1;fillColor=#f5f5f5;strokeColor=#666666;fontColor=#333333;fontSize=10;" vertex="1" parent="1">
          <mxGeometry x="540" y="189" width="20" height="20" as="geometry" />
        </mxCell>
        <mxCell id="l8qkzc66FlltGpMFYKSo-287" value="" style="rounded=0;whiteSpace=wrap;html=1;fontSize=10;fillColor=#999999;fontColor=#333333;strokeColor=default;align=center;verticalAlign=middle;fontFamily=Helvetica;" vertex="1" parent="1">
          <mxGeometry x="510" y="189" width="20" height="20" as="geometry" />
        </mxCell>
        <mxCell id="l8qkzc66FlltGpMFYKSo-288" value="" style="rounded=0;whiteSpace=wrap;html=1;fontSize=10;fillColor=#999999;fontColor=#333333;strokeColor=default;align=center;verticalAlign=middle;fontFamily=Helvetica;" vertex="1" parent="1">
          <mxGeometry x="480" y="189" width="20" height="20" as="geometry" />
        </mxCell>
        <mxCell id="l8qkzc66FlltGpMFYKSo-289" value="" style="rounded=0;whiteSpace=wrap;html=1;fillColor=#999999;strokeColor=default;fontColor=#333333;fontSize=10;align=center;verticalAlign=middle;fontFamily=Helvetica;" vertex="1" parent="1">
          <mxGeometry x="540" y="219.06" width="20" height="20" as="geometry" />
        </mxCell>
        <mxCell id="l8qkzc66FlltGpMFYKSo-290" value="" style="rounded=0;whiteSpace=wrap;html=1;fillColor=#999999;strokeColor=default;fontColor=#333333;fontSize=10;align=center;verticalAlign=middle;fontFamily=Helvetica;" vertex="1" parent="1">
          <mxGeometry x="510" y="219.06" width="20" height="20" as="geometry" />
        </mxCell>
        <mxCell id="l8qkzc66FlltGpMFYKSo-291" value="" style="rounded=0;whiteSpace=wrap;html=1;fillColor=#999999;strokeColor=default;fontColor=#333333;fontSize=10;align=center;verticalAlign=middle;fontFamily=Helvetica;" vertex="1" parent="1">
          <mxGeometry x="480" y="219.06" width="20" height="20" as="geometry" />
        </mxCell>
        <mxCell id="l8qkzc66FlltGpMFYKSo-292" value="" style="rounded=0;whiteSpace=wrap;html=1;fillColor=#f5f5f5;strokeColor=#666666;fontColor=#333333;fontSize=10;" vertex="1" parent="1">
          <mxGeometry x="630" y="189" width="20" height="20" as="geometry" />
        </mxCell>
        <mxCell id="l8qkzc66FlltGpMFYKSo-293" value="" style="rounded=0;whiteSpace=wrap;html=1;fillColor=#f5f5f5;strokeColor=#666666;fontColor=#333333;fontSize=10;" vertex="1" parent="1">
          <mxGeometry x="600" y="189" width="20" height="20" as="geometry" />
        </mxCell>
        <mxCell id="l8qkzc66FlltGpMFYKSo-294" value="" style="rounded=0;whiteSpace=wrap;html=1;fillColor=#f5f5f5;strokeColor=#666666;fontColor=#333333;fontSize=10;" vertex="1" parent="1">
          <mxGeometry x="570" y="189" width="20" height="20" as="geometry" />
        </mxCell>
        <mxCell id="l8qkzc66FlltGpMFYKSo-295" value="" style="rounded=0;whiteSpace=wrap;html=1;fillColor=#999999;strokeColor=default;fontColor=#333333;fontSize=10;align=center;verticalAlign=middle;fontFamily=Helvetica;" vertex="1" parent="1">
          <mxGeometry x="630" y="219.06" width="20" height="20" as="geometry" />
        </mxCell>
        <mxCell id="l8qkzc66FlltGpMFYKSo-296" value="" style="rounded=0;whiteSpace=wrap;html=1;fillColor=#999999;strokeColor=default;fontColor=#333333;fontSize=10;align=center;verticalAlign=middle;fontFamily=Helvetica;" vertex="1" parent="1">
          <mxGeometry x="600" y="219.06" width="20" height="20" as="geometry" />
        </mxCell>
        <mxCell id="l8qkzc66FlltGpMFYKSo-297" value="" style="rounded=0;whiteSpace=wrap;html=1;fillColor=#999999;strokeColor=default;fontColor=#333333;fontSize=10;align=center;verticalAlign=middle;fontFamily=Helvetica;" vertex="1" parent="1">
          <mxGeometry x="570" y="219.06" width="20" height="20" as="geometry" />
        </mxCell>
        <mxCell id="l8qkzc66FlltGpMFYKSo-298" value="" style="rounded=0;whiteSpace=wrap;html=1;fillColor=#f5f5f5;strokeColor=#666666;fontColor=#333333;fontSize=10;" vertex="1" parent="1">
          <mxGeometry x="720" y="189" width="20" height="20" as="geometry" />
        </mxCell>
        <mxCell id="l8qkzc66FlltGpMFYKSo-299" value="" style="rounded=0;whiteSpace=wrap;html=1;fillColor=#f5f5f5;strokeColor=#666666;fontColor=#333333;fontSize=10;" vertex="1" parent="1">
          <mxGeometry x="690" y="189" width="20" height="20" as="geometry" />
        </mxCell>
        <mxCell id="l8qkzc66FlltGpMFYKSo-300" value="" style="rounded=0;whiteSpace=wrap;html=1;fillColor=#f5f5f5;strokeColor=#666666;fontColor=#333333;fontSize=10;" vertex="1" parent="1">
          <mxGeometry x="660" y="189" width="20" height="20" as="geometry" />
        </mxCell>
        <mxCell id="l8qkzc66FlltGpMFYKSo-301" value="" style="rounded=0;whiteSpace=wrap;html=1;fillColor=#999999;strokeColor=default;fontColor=#333333;fontSize=10;align=center;verticalAlign=middle;fontFamily=Helvetica;" vertex="1" parent="1">
          <mxGeometry x="720" y="219.06" width="20" height="20" as="geometry" />
        </mxCell>
        <mxCell id="l8qkzc66FlltGpMFYKSo-302" value="" style="rounded=0;whiteSpace=wrap;html=1;fillColor=#999999;strokeColor=default;fontColor=#333333;fontSize=10;align=center;verticalAlign=middle;fontFamily=Helvetica;" vertex="1" parent="1">
          <mxGeometry x="690" y="219.06" width="20" height="20" as="geometry" />
        </mxCell>
        <mxCell id="l8qkzc66FlltGpMFYKSo-303" value="" style="rounded=0;whiteSpace=wrap;html=1;fillColor=#999999;strokeColor=default;fontColor=#333333;fontSize=10;align=center;verticalAlign=middle;fontFamily=Helvetica;" vertex="1" parent="1">
          <mxGeometry x="660" y="219.06" width="20" height="20" as="geometry" />
        </mxCell>
        <mxCell id="l8qkzc66FlltGpMFYKSo-304" value="" style="rounded=0;whiteSpace=wrap;html=1;fillColor=#f5f5f5;strokeColor=#666666;fontColor=#333333;fontSize=10;" vertex="1" parent="1">
          <mxGeometry x="810" y="189" width="20" height="20" as="geometry" />
        </mxCell>
        <mxCell id="l8qkzc66FlltGpMFYKSo-305" value="" style="rounded=0;whiteSpace=wrap;html=1;fillColor=#f5f5f5;strokeColor=#666666;fontColor=#333333;fontSize=10;" vertex="1" parent="1">
          <mxGeometry x="780" y="189" width="20" height="20" as="geometry" />
        </mxCell>
        <mxCell id="l8qkzc66FlltGpMFYKSo-306" value="" style="rounded=0;whiteSpace=wrap;html=1;fillColor=#f5f5f5;strokeColor=#666666;fontColor=#333333;fontSize=10;" vertex="1" parent="1">
          <mxGeometry x="750" y="189" width="20" height="20" as="geometry" />
        </mxCell>
        <mxCell id="l8qkzc66FlltGpMFYKSo-307" value="" style="rounded=0;whiteSpace=wrap;html=1;fillColor=#999999;strokeColor=default;fontColor=#333333;fontSize=10;align=center;verticalAlign=middle;fontFamily=Helvetica;" vertex="1" parent="1">
          <mxGeometry x="810" y="219.06" width="20" height="20" as="geometry" />
        </mxCell>
        <mxCell id="l8qkzc66FlltGpMFYKSo-308" value="" style="rounded=0;whiteSpace=wrap;html=1;fillColor=#999999;strokeColor=default;fontColor=#333333;fontSize=10;align=center;verticalAlign=middle;fontFamily=Helvetica;" vertex="1" parent="1">
          <mxGeometry x="780" y="219.06" width="20" height="20" as="geometry" />
        </mxCell>
        <mxCell id="l8qkzc66FlltGpMFYKSo-309" value="" style="rounded=0;whiteSpace=wrap;html=1;fillColor=#999999;strokeColor=default;fontColor=#333333;fontSize=10;align=center;verticalAlign=middle;fontFamily=Helvetica;" vertex="1" parent="1">
          <mxGeometry x="750" y="219.06" width="20" height="20" as="geometry" />
        </mxCell>
        <mxCell id="l8qkzc66FlltGpMFYKSo-311" value="" style="rounded=0;whiteSpace=wrap;html=1;fillColor=#f5f5f5;strokeColor=#666666;fontColor=#333333;fontSize=10;" vertex="1" parent="1">
          <mxGeometry x="870" y="189" width="20" height="20" as="geometry" />
        </mxCell>
        <mxCell id="l8qkzc66FlltGpMFYKSo-312" value="" style="rounded=0;whiteSpace=wrap;html=1;fillColor=#f5f5f5;strokeColor=#666666;fontColor=#333333;fontSize=10;" vertex="1" parent="1">
          <mxGeometry x="840" y="189" width="20" height="20" as="geometry" />
        </mxCell>
        <mxCell id="l8qkzc66FlltGpMFYKSo-314" value="" style="rounded=0;whiteSpace=wrap;html=1;fillColor=#f5f5f5;strokeColor=#666666;fontColor=#333333;fontSize=10;" vertex="1" parent="1">
          <mxGeometry x="870" y="219.06" width="20" height="20" as="geometry" />
        </mxCell>
        <mxCell id="l8qkzc66FlltGpMFYKSo-315" value="" style="rounded=0;whiteSpace=wrap;html=1;fillColor=#999999;strokeColor=default;fontColor=#333333;fontSize=10;align=center;verticalAlign=middle;fontFamily=Helvetica;" vertex="1" parent="1">
          <mxGeometry x="840" y="219.06" width="20" height="20" as="geometry" />
        </mxCell>
        <mxCell id="l8qkzc66FlltGpMFYKSo-334" value="" style="rounded=0;whiteSpace=wrap;html=1;fillColor=#f5f5f5;strokeColor=#666666;fontColor=#333333;fontSize=10;" vertex="1" parent="1">
          <mxGeometry x="180" y="504.94" width="20" height="20" as="geometry" />
        </mxCell>
        <mxCell id="l8qkzc66FlltGpMFYKSo-335" value="" style="rounded=0;whiteSpace=wrap;html=1;fillColor=#f5f5f5;strokeColor=#666666;fontColor=#333333;fontSize=10;" vertex="1" parent="1">
          <mxGeometry x="150" y="504.94" width="20" height="20" as="geometry" />
        </mxCell>
        <mxCell id="l8qkzc66FlltGpMFYKSo-336" value="" style="rounded=0;whiteSpace=wrap;html=1;fillColor=#f5f5f5;strokeColor=#666666;fontColor=#333333;fontSize=10;" vertex="1" parent="1">
          <mxGeometry x="120" y="504.94" width="20" height="20" as="geometry" />
        </mxCell>
        <mxCell id="l8qkzc66FlltGpMFYKSo-337" value="" style="rounded=0;whiteSpace=wrap;html=1;fillColor=#999999;strokeColor=default;fontColor=#333333;fontSize=10;align=center;verticalAlign=middle;fontFamily=Helvetica;" vertex="1" parent="1">
          <mxGeometry x="180" y="535" width="20" height="20" as="geometry" />
        </mxCell>
        <mxCell id="l8qkzc66FlltGpMFYKSo-338" value="" style="rounded=0;whiteSpace=wrap;html=1;fillColor=#999999;strokeColor=default;fontColor=#333333;fontSize=10;align=center;verticalAlign=middle;fontFamily=Helvetica;" vertex="1" parent="1">
          <mxGeometry x="150" y="535" width="20" height="20" as="geometry" />
        </mxCell>
        <mxCell id="l8qkzc66FlltGpMFYKSo-339" value="" style="rounded=0;whiteSpace=wrap;html=1;fillColor=#999999;strokeColor=default;fontColor=#333333;fontSize=10;align=center;verticalAlign=middle;fontFamily=Helvetica;" vertex="1" parent="1">
          <mxGeometry x="120" y="535" width="20" height="20" as="geometry" />
        </mxCell>
        <mxCell id="l8qkzc66FlltGpMFYKSo-340" value="" style="rounded=0;whiteSpace=wrap;html=1;fillColor=#999999;strokeColor=default;fontColor=#333333;fontSize=10;align=center;verticalAlign=middle;fontFamily=Helvetica;" vertex="1" parent="1">
          <mxGeometry x="270" y="504.94" width="20" height="20" as="geometry" />
        </mxCell>
        <mxCell id="l8qkzc66FlltGpMFYKSo-341" value="" style="rounded=0;whiteSpace=wrap;html=1;fillColor=#999999;strokeColor=default;fontColor=#333333;fontSize=10;align=center;verticalAlign=middle;fontFamily=Helvetica;" vertex="1" parent="1">
          <mxGeometry x="240" y="504.94" width="20" height="20" as="geometry" />
        </mxCell>
        <mxCell id="l8qkzc66FlltGpMFYKSo-342" value="" style="rounded=0;whiteSpace=wrap;html=1;fillColor=#f5f5f5;strokeColor=#666666;fontColor=#333333;fontSize=10;" vertex="1" parent="1">
          <mxGeometry x="210" y="504.94" width="20" height="20" as="geometry" />
        </mxCell>
        <mxCell id="l8qkzc66FlltGpMFYKSo-343" value="" style="rounded=0;whiteSpace=wrap;html=1;fillColor=#999999;strokeColor=default;fontColor=#333333;fontSize=10;align=center;verticalAlign=middle;fontFamily=Helvetica;" vertex="1" parent="1">
          <mxGeometry x="270" y="535" width="20" height="20" as="geometry" />
        </mxCell>
        <mxCell id="l8qkzc66FlltGpMFYKSo-344" value="" style="rounded=0;whiteSpace=wrap;html=1;fillColor=#999999;strokeColor=default;fontColor=#333333;fontSize=10;align=center;verticalAlign=middle;fontFamily=Helvetica;" vertex="1" parent="1">
          <mxGeometry x="240" y="535" width="20" height="20" as="geometry" />
        </mxCell>
        <mxCell id="l8qkzc66FlltGpMFYKSo-345" value="" style="rounded=0;whiteSpace=wrap;html=1;fillColor=#999999;strokeColor=default;fontColor=#333333;fontSize=10;align=center;verticalAlign=middle;fontFamily=Helvetica;" vertex="1" parent="1">
          <mxGeometry x="210" y="535" width="20" height="20" as="geometry" />
        </mxCell>
        <mxCell id="l8qkzc66FlltGpMFYKSo-346" value="" style="rounded=0;whiteSpace=wrap;html=1;fillColor=#999999;strokeColor=default;fontColor=#333333;fontSize=10;align=center;verticalAlign=middle;fontFamily=Helvetica;" vertex="1" parent="1">
          <mxGeometry x="360" y="504.94" width="20" height="20" as="geometry" />
        </mxCell>
        <mxCell id="l8qkzc66FlltGpMFYKSo-347" value="" style="rounded=0;whiteSpace=wrap;html=1;fillColor=#999999;strokeColor=default;fontColor=#333333;fontSize=10;align=center;verticalAlign=middle;fontFamily=Helvetica;" vertex="1" parent="1">
          <mxGeometry x="330" y="504.94" width="20" height="20" as="geometry" />
        </mxCell>
        <mxCell id="l8qkzc66FlltGpMFYKSo-348" value="" style="rounded=0;whiteSpace=wrap;html=1;fillColor=#999999;strokeColor=default;fontColor=#333333;fontSize=10;align=center;verticalAlign=middle;fontFamily=Helvetica;" vertex="1" parent="1">
          <mxGeometry x="300" y="504.94" width="20" height="20" as="geometry" />
        </mxCell>
        <mxCell id="l8qkzc66FlltGpMFYKSo-349" value="" style="rounded=0;whiteSpace=wrap;html=1;fillColor=#999999;strokeColor=default;fontColor=#333333;fontSize=10;align=center;verticalAlign=middle;fontFamily=Helvetica;" vertex="1" parent="1">
          <mxGeometry x="360" y="535" width="20" height="20" as="geometry" />
        </mxCell>
        <mxCell id="l8qkzc66FlltGpMFYKSo-350" value="" style="rounded=0;whiteSpace=wrap;html=1;fillColor=#999999;strokeColor=default;fontColor=#333333;fontSize=10;align=center;verticalAlign=middle;fontFamily=Helvetica;" vertex="1" parent="1">
          <mxGeometry x="330" y="535" width="20" height="20" as="geometry" />
        </mxCell>
        <mxCell id="l8qkzc66FlltGpMFYKSo-351" value="" style="rounded=0;whiteSpace=wrap;html=1;fillColor=#999999;strokeColor=default;fontColor=#333333;fontSize=10;align=center;verticalAlign=middle;fontFamily=Helvetica;" vertex="1" parent="1">
          <mxGeometry x="300" y="535" width="20" height="20" as="geometry" />
        </mxCell>
        <mxCell id="l8qkzc66FlltGpMFYKSo-352" value="" style="rounded=0;whiteSpace=wrap;html=1;fillColor=#999999;strokeColor=default;fontColor=#333333;fontSize=10;align=center;verticalAlign=middle;fontFamily=Helvetica;" vertex="1" parent="1">
          <mxGeometry x="450" y="504.94" width="20" height="20" as="geometry" />
        </mxCell>
        <mxCell id="l8qkzc66FlltGpMFYKSo-353" value="" style="rounded=0;whiteSpace=wrap;html=1;fillColor=#999999;strokeColor=default;fontColor=#333333;fontSize=10;align=center;verticalAlign=middle;fontFamily=Helvetica;" vertex="1" parent="1">
          <mxGeometry x="420" y="504.94" width="20" height="20" as="geometry" />
        </mxCell>
        <mxCell id="l8qkzc66FlltGpMFYKSo-354" value="" style="rounded=0;whiteSpace=wrap;html=1;fillColor=#999999;strokeColor=default;fontColor=#333333;fontSize=10;align=center;verticalAlign=middle;fontFamily=Helvetica;" vertex="1" parent="1">
          <mxGeometry x="390" y="504.94" width="20" height="20" as="geometry" />
        </mxCell>
        <mxCell id="l8qkzc66FlltGpMFYKSo-355" value="" style="rounded=0;whiteSpace=wrap;html=1;fillColor=#999999;strokeColor=default;fontColor=#333333;fontSize=10;align=center;verticalAlign=middle;fontFamily=Helvetica;" vertex="1" parent="1">
          <mxGeometry x="450" y="535" width="20" height="20" as="geometry" />
        </mxCell>
        <mxCell id="l8qkzc66FlltGpMFYKSo-356" value="" style="rounded=0;whiteSpace=wrap;html=1;fillColor=#999999;strokeColor=default;fontColor=#333333;fontSize=10;align=center;verticalAlign=middle;fontFamily=Helvetica;" vertex="1" parent="1">
          <mxGeometry x="420" y="535" width="20" height="20" as="geometry" />
        </mxCell>
        <mxCell id="l8qkzc66FlltGpMFYKSo-357" value="" style="rounded=0;whiteSpace=wrap;html=1;fillColor=#999999;strokeColor=default;fontColor=#333333;fontSize=10;align=center;verticalAlign=middle;fontFamily=Helvetica;" vertex="1" parent="1">
          <mxGeometry x="390" y="535" width="20" height="20" as="geometry" />
        </mxCell>
        <mxCell id="l8qkzc66FlltGpMFYKSo-358" value="" style="rounded=0;whiteSpace=wrap;html=1;fillColor=#f5f5f5;strokeColor=#666666;fontColor=#333333;fontSize=10;" vertex="1" parent="1">
          <mxGeometry x="540" y="504.94" width="20" height="20" as="geometry" />
        </mxCell>
        <mxCell id="l8qkzc66FlltGpMFYKSo-359" value="" style="rounded=0;whiteSpace=wrap;html=1;fillColor=#999999;strokeColor=default;fontColor=#333333;fontSize=10;align=center;verticalAlign=middle;fontFamily=Helvetica;" vertex="1" parent="1">
          <mxGeometry x="510" y="504.94" width="20" height="20" as="geometry" />
        </mxCell>
        <mxCell id="l8qkzc66FlltGpMFYKSo-360" value="" style="rounded=0;whiteSpace=wrap;html=1;fillColor=#999999;strokeColor=default;fontColor=#333333;fontSize=10;align=center;verticalAlign=middle;fontFamily=Helvetica;" vertex="1" parent="1">
          <mxGeometry x="480" y="504.94" width="20" height="20" as="geometry" />
        </mxCell>
        <mxCell id="l8qkzc66FlltGpMFYKSo-361" value="" style="rounded=0;whiteSpace=wrap;html=1;fillColor=#999999;strokeColor=default;fontColor=#333333;fontSize=10;align=center;verticalAlign=middle;fontFamily=Helvetica;" vertex="1" parent="1">
          <mxGeometry x="540" y="535" width="20" height="20" as="geometry" />
        </mxCell>
        <mxCell id="l8qkzc66FlltGpMFYKSo-362" value="" style="rounded=0;whiteSpace=wrap;html=1;fillColor=#999999;strokeColor=default;fontColor=#333333;fontSize=10;align=center;verticalAlign=middle;fontFamily=Helvetica;" vertex="1" parent="1">
          <mxGeometry x="510" y="535" width="20" height="20" as="geometry" />
        </mxCell>
        <mxCell id="l8qkzc66FlltGpMFYKSo-363" value="" style="rounded=0;whiteSpace=wrap;html=1;fillColor=#999999;strokeColor=default;fontColor=#333333;fontSize=10;align=center;verticalAlign=middle;fontFamily=Helvetica;" vertex="1" parent="1">
          <mxGeometry x="480" y="535" width="20" height="20" as="geometry" />
        </mxCell>
        <mxCell id="l8qkzc66FlltGpMFYKSo-364" value="" style="rounded=0;whiteSpace=wrap;html=1;fillColor=#f5f5f5;strokeColor=#666666;fontColor=#333333;fontSize=10;" vertex="1" parent="1">
          <mxGeometry x="630" y="504.94" width="20" height="20" as="geometry" />
        </mxCell>
        <mxCell id="l8qkzc66FlltGpMFYKSo-365" value="" style="rounded=0;whiteSpace=wrap;html=1;fillColor=#f5f5f5;strokeColor=#666666;fontColor=#333333;fontSize=10;" vertex="1" parent="1">
          <mxGeometry x="600" y="504.94" width="20" height="20" as="geometry" />
        </mxCell>
        <mxCell id="l8qkzc66FlltGpMFYKSo-366" value="" style="rounded=0;whiteSpace=wrap;html=1;fillColor=#f5f5f5;strokeColor=#666666;fontColor=#333333;fontSize=10;" vertex="1" parent="1">
          <mxGeometry x="570" y="504.94" width="20" height="20" as="geometry" />
        </mxCell>
        <mxCell id="l8qkzc66FlltGpMFYKSo-367" value="" style="rounded=0;whiteSpace=wrap;html=1;fillColor=#999999;strokeColor=default;fontColor=#333333;fontSize=10;align=center;verticalAlign=middle;fontFamily=Helvetica;" vertex="1" parent="1">
          <mxGeometry x="630" y="535" width="20" height="20" as="geometry" />
        </mxCell>
        <mxCell id="l8qkzc66FlltGpMFYKSo-368" value="" style="rounded=0;whiteSpace=wrap;html=1;fillColor=#999999;strokeColor=default;fontColor=#333333;fontSize=10;align=center;verticalAlign=middle;fontFamily=Helvetica;" vertex="1" parent="1">
          <mxGeometry x="600" y="535" width="20" height="20" as="geometry" />
        </mxCell>
        <mxCell id="l8qkzc66FlltGpMFYKSo-369" value="" style="rounded=0;whiteSpace=wrap;html=1;fillColor=#999999;strokeColor=default;fontColor=#333333;fontSize=10;align=center;verticalAlign=middle;fontFamily=Helvetica;" vertex="1" parent="1">
          <mxGeometry x="570" y="535" width="20" height="20" as="geometry" />
        </mxCell>
        <mxCell id="l8qkzc66FlltGpMFYKSo-370" value="" style="rounded=0;whiteSpace=wrap;html=1;fillColor=#f5f5f5;strokeColor=#666666;fontColor=#333333;fontSize=10;" vertex="1" parent="1">
          <mxGeometry x="720" y="504.94" width="20" height="20" as="geometry" />
        </mxCell>
        <mxCell id="l8qkzc66FlltGpMFYKSo-371" value="" style="rounded=0;whiteSpace=wrap;html=1;fillColor=#f5f5f5;strokeColor=#666666;fontColor=#333333;fontSize=10;" vertex="1" parent="1">
          <mxGeometry x="690" y="504.94" width="20" height="20" as="geometry" />
        </mxCell>
        <mxCell id="l8qkzc66FlltGpMFYKSo-372" value="" style="rounded=0;whiteSpace=wrap;html=1;fillColor=#f5f5f5;strokeColor=#666666;fontColor=#333333;fontSize=10;" vertex="1" parent="1">
          <mxGeometry x="660" y="504.94" width="20" height="20" as="geometry" />
        </mxCell>
        <mxCell id="l8qkzc66FlltGpMFYKSo-373" value="" style="rounded=0;whiteSpace=wrap;html=1;fillColor=#999999;strokeColor=default;fontColor=#333333;fontSize=10;align=center;verticalAlign=middle;fontFamily=Helvetica;" vertex="1" parent="1">
          <mxGeometry x="720" y="535" width="20" height="20" as="geometry" />
        </mxCell>
        <mxCell id="l8qkzc66FlltGpMFYKSo-374" value="" style="rounded=0;whiteSpace=wrap;html=1;fillColor=#999999;strokeColor=default;fontColor=#333333;fontSize=10;align=center;verticalAlign=middle;fontFamily=Helvetica;" vertex="1" parent="1">
          <mxGeometry x="690" y="535" width="20" height="20" as="geometry" />
        </mxCell>
        <mxCell id="l8qkzc66FlltGpMFYKSo-375" value="" style="rounded=0;whiteSpace=wrap;html=1;fillColor=#999999;strokeColor=default;fontColor=#333333;fontSize=10;align=center;verticalAlign=middle;fontFamily=Helvetica;" vertex="1" parent="1">
          <mxGeometry x="660" y="535" width="20" height="20" as="geometry" />
        </mxCell>
        <mxCell id="l8qkzc66FlltGpMFYKSo-376" value="" style="rounded=0;whiteSpace=wrap;html=1;fillColor=#f5f5f5;strokeColor=#666666;fontColor=#333333;fontSize=10;" vertex="1" parent="1">
          <mxGeometry x="810" y="504.94" width="20" height="20" as="geometry" />
        </mxCell>
        <mxCell id="l8qkzc66FlltGpMFYKSo-377" value="" style="rounded=0;whiteSpace=wrap;html=1;fillColor=#f5f5f5;strokeColor=#666666;fontColor=#333333;fontSize=10;" vertex="1" parent="1">
          <mxGeometry x="780" y="504.94" width="20" height="20" as="geometry" />
        </mxCell>
        <mxCell id="l8qkzc66FlltGpMFYKSo-378" value="" style="rounded=0;whiteSpace=wrap;html=1;fillColor=#f5f5f5;strokeColor=#666666;fontColor=#333333;fontSize=10;" vertex="1" parent="1">
          <mxGeometry x="750" y="504.94" width="20" height="20" as="geometry" />
        </mxCell>
        <mxCell id="l8qkzc66FlltGpMFYKSo-379" value="" style="rounded=0;whiteSpace=wrap;html=1;fillColor=#999999;strokeColor=default;fontColor=#333333;fontSize=10;align=center;verticalAlign=middle;fontFamily=Helvetica;" vertex="1" parent="1">
          <mxGeometry x="810" y="535" width="20" height="20" as="geometry" />
        </mxCell>
        <mxCell id="l8qkzc66FlltGpMFYKSo-380" value="" style="rounded=0;whiteSpace=wrap;html=1;fillColor=#999999;strokeColor=default;fontColor=#333333;fontSize=10;align=center;verticalAlign=middle;fontFamily=Helvetica;" vertex="1" parent="1">
          <mxGeometry x="780" y="535" width="20" height="20" as="geometry" />
        </mxCell>
        <mxCell id="l8qkzc66FlltGpMFYKSo-381" value="" style="rounded=0;whiteSpace=wrap;html=1;fillColor=#999999;strokeColor=default;fontColor=#333333;fontSize=10;align=center;verticalAlign=middle;fontFamily=Helvetica;" vertex="1" parent="1">
          <mxGeometry x="750" y="535" width="20" height="20" as="geometry" />
        </mxCell>
        <mxCell id="l8qkzc66FlltGpMFYKSo-382" value="" style="rounded=0;whiteSpace=wrap;html=1;fillColor=#f5f5f5;strokeColor=#666666;fontColor=#333333;fontSize=10;" vertex="1" parent="1">
          <mxGeometry x="870" y="504.94" width="20" height="20" as="geometry" />
        </mxCell>
        <mxCell id="l8qkzc66FlltGpMFYKSo-383" value="" style="rounded=0;whiteSpace=wrap;html=1;fillColor=#f5f5f5;strokeColor=#666666;fontColor=#333333;fontSize=10;" vertex="1" parent="1">
          <mxGeometry x="840" y="504.94" width="20" height="20" as="geometry" />
        </mxCell>
        <mxCell id="l8qkzc66FlltGpMFYKSo-384" value="" style="rounded=0;whiteSpace=wrap;html=1;fillColor=#999999;strokeColor=default;fontColor=#333333;fontSize=10;align=center;verticalAlign=middle;fontFamily=Helvetica;" vertex="1" parent="1">
          <mxGeometry x="870" y="535" width="20" height="20" as="geometry" />
        </mxCell>
        <mxCell id="l8qkzc66FlltGpMFYKSo-385" value="" style="rounded=0;whiteSpace=wrap;html=1;fillColor=#999999;strokeColor=default;fontColor=#333333;fontSize=10;align=center;verticalAlign=middle;fontFamily=Helvetica;" vertex="1" parent="1">
          <mxGeometry x="840" y="535" width="20" height="20" as="geometry" />
        </mxCell>
        <mxCell id="l8qkzc66FlltGpMFYKSo-386" value="&lt;font style=&quot;font-size: 16px;&quot;&gt;&lt;b&gt;audio_mel[0]&lt;/b&gt;&lt;/font&gt;" style="text;html=1;align=center;verticalAlign=middle;whiteSpace=wrap;rounded=0;" vertex="1" parent="1">
          <mxGeometry x="-19.999999999999996" y="260" width="116.06" height="30" as="geometry" />
        </mxCell>
        <mxCell id="l8qkzc66FlltGpMFYKSo-387" value="&lt;font style=&quot;font-size: 16px;&quot;&gt;&lt;b&gt;audio_mel[1]&lt;/b&gt;&lt;/font&gt;" style="text;html=1;align=center;verticalAlign=middle;whiteSpace=wrap;rounded=0;" vertex="1" parent="1">
          <mxGeometry x="-19.999999999999996" y="574.9999999999999" width="116.06" height="30" as="geometry" />
        </mxCell>
        <mxCell id="l8qkzc66FlltGpMFYKSo-388" value="" style="rounded=0;whiteSpace=wrap;html=1;fillColor=#0066CC;strokeColor=default;fontSize=10;align=center;verticalAlign=middle;fontFamily=Helvetica;strokeWidth=1;fontColor=#333333;" vertex="1" parent="1">
          <mxGeometry x="360" y="260" width="170.52" height="20" as="geometry" />
        </mxCell>
        <mxCell id="l8qkzc66FlltGpMFYKSo-389" value="" style="rounded=0;whiteSpace=wrap;html=1;fillColor=#0066CC;strokeColor=default;fontSize=10;align=center;verticalAlign=middle;fontFamily=Helvetica;strokeWidth=1;fontColor=#333333;" vertex="1" parent="1">
          <mxGeometry x="240" y="580" width="290" height="20" as="geometry" />
        </mxCell>
        <mxCell id="l8qkzc66FlltGpMFYKSo-390" value="" style="rounded=0;whiteSpace=wrap;html=1;fillColor=#f5f5f5;strokeColor=#666666;fontColor=#333333;fontSize=10;align=center;verticalAlign=middle;fontFamily=Helvetica;" vertex="1" parent="1">
          <mxGeometry x="840" y="85" width="20" height="20" as="geometry" />
        </mxCell>
      </root>
    </mxGraphModel>
  </diagram>
</mxfile>
